<?xml version="1.0" encoding="utf-8"?>
<!-- Generator: Adobe Illustrator 24.2.3, SVG Export Plug-In . SVG Version: 6.00 Build 0)  -->
<svg version="1.1" id="Слой_1" xmlns="http://www.w3.org/2000/svg" xmlns:xlink="http://www.w3.org/1999/xlink" x="0px" y="0px"
	 viewBox="0 0 20 20" style="enable-background:new 0 0 20 20;" xml:space="preserve">
<style type="text/css">
	.st0{fill:#FFFFFF;}
</style>
<path class="st0" d="M13.3,14.2l1.7-1.7c0.2-0.2,0.5-0.4,0.8-0.5c0.3-0.1,0.7,0,1,0.1L19,13c0.3,0.1,0.6,0.3,0.8,0.6
	c0.2,0.3,0.3,0.6,0.3,0.9v3.8c0,0.2,0,0.4-0.1,0.7c-0.1,0.2-0.2,0.4-0.4,0.5c-0.2,0.2-0.4,0.3-0.6,0.4C18.7,20,18.5,20,18.2,20
	C3.5,19.1,0.6,6.6,0,1.9c0-0.2,0-0.5,0.1-0.7c0.1-0.2,0.2-0.4,0.3-0.6C0.6,0.4,0.8,0.2,1,0.1C1.2,0,1.4,0,1.7,0h3.7
	C5.7,0,6,0.1,6.3,0.3C6.6,0.5,6.8,0.7,6.9,1l0.8,2.1c0.1,0.3,0.2,0.6,0.1,1C7.8,4.4,7.6,4.7,7.4,4.9L5.7,6.7
	C5.7,6.7,6.7,13.4,13.3,14.2z"/>
</svg>
