<?xml version="1.0" encoding="utf-8"?>
<!-- Generator: Adobe Illustrator 24.2.3, SVG Export Plug-In . SVG Version: 6.00 Build 0)  -->
<svg version="1.1" id="Слой_1" xmlns="http://www.w3.org/2000/svg" xmlns:xlink="http://www.w3.org/1999/xlink" x="0px" y="0px"
	 viewBox="0 0 153.3 48.9" style="enable-background:new 0 0 153.3 48.9;" xml:space="preserve">
<style type="text/css">
	.st0{fill:#FFFFFF;}
	.st1{fill:none;stroke:#BFECFF;stroke-width:1.5;stroke-linecap:round;}
	.st2{fill-rule:evenodd;clip-rule:evenodd;fill:#FFFFFF;}
	.st3{fill:none;stroke:#FE60B7;stroke-width:1.5;stroke-linecap:round;}
	.st4{fill:none;stroke:#A072FD;stroke-width:1.5;stroke-linecap:round;}
</style>
<path class="st0" d="M65.6,27.6h-2.7v-12h2.6v2c0.5-0.8,1.2-1.4,1.9-1.8c0.7-0.4,1.5-0.6,2.5-0.6c0.9,0,1.7,0.2,2.3,0.6
	c0.6,0.4,1.1,1,1.4,1.8c0.6-0.8,1.3-1.4,2-1.8c0.7-0.4,1.5-0.6,2.4-0.6c0.8,0,1.5,0.1,2.1,0.4c0.6,0.3,1,0.7,1.4,1.3
	c0.2,0.3,0.3,0.6,0.3,0.9c0.1,0.4,0.1,0.9,0.1,1.6v8.2H79v-6.1c0-1.6-0.2-2.7-0.5-3.2c-0.3-0.5-0.9-0.8-1.8-0.8
	c-1.1,0-1.8,0.3-2.3,1c-0.5,0.7-0.7,1.9-0.7,3.6v5.5h-2.8v-6.1c0-1.5-0.2-2.5-0.5-3.1c-0.4-0.6-1-0.9-1.8-0.9c-0.5,0-1,0.1-1.5,0.4
	c-0.4,0.2-0.8,0.6-1.1,1c-0.2,0.3-0.3,0.6-0.4,1c-0.1,0.4-0.1,1.1-0.1,2.2V27.6z"/>
<path class="st0" d="M96.7,27.6H94V26c-0.5,0.7-1.1,1.2-1.7,1.5c-0.6,0.3-1.4,0.5-2.2,0.5c-1.7,0-3-0.6-4-1.7
	c-1-1.2-1.5-2.7-1.5-4.8c0-1.9,0.5-3.5,1.5-4.6c1-1.2,2.3-1.8,3.9-1.8c1,0,1.8,0.2,2.5,0.6c0.7,0.4,1.2,1,1.5,1.8v-2h2.7V27.6z
	 M94,21.6c0-1.2-0.3-2.2-0.9-2.9c-0.6-0.7-1.4-1-2.4-1c-1,0-1.9,0.4-2.4,1.1c-0.6,0.7-0.9,1.7-0.9,3c0,1.3,0.3,2.3,0.9,2.9
	c0.6,0.7,1.4,1,2.4,1c1,0,1.8-0.4,2.4-1.1C93.7,23.8,94,22.8,94,21.6z"/>
<path class="st0" d="M109.1,21.6c0-1.2-0.3-2.2-0.9-2.9c-0.6-0.7-1.4-1-2.4-1c-1,0-1.9,0.4-2.4,1.1c-0.6,0.7-0.9,1.7-0.9,3
	c0,1.3,0.3,2.3,0.9,2.9s1.4,1,2.4,1c1,0,1.8-0.4,2.4-1.1C108.8,23.8,109.1,22.8,109.1,21.6z M111.8,26.8c0,2.3-0.5,4-1.4,4.9
	c-0.9,1-2.5,1.4-4.7,1.4c-1.7,0-3-0.3-4-1c-1-0.7-1.5-1.6-1.5-2.8l2.9,0c0,0.5,0.3,0.9,0.7,1.2c0.4,0.3,1.1,0.4,1.8,0.4
	c1.2,0,2-0.3,2.5-0.8c0.5-0.5,0.8-1.4,0.8-2.6l0-1.6c-0.5,0.7-1.1,1.2-1.7,1.5c-0.6,0.3-1.4,0.5-2.2,0.5c-1.7,0-3-0.6-4-1.7
	c-1-1.2-1.5-2.7-1.5-4.8c0-1.9,0.5-3.5,1.5-4.6c1-1.2,2.3-1.8,3.9-1.8c1,0,1.8,0.2,2.5,0.6c0.7,0.4,1.2,1,1.5,1.8v-2h2.7V26.8z"/>
<path class="st0" d="M127,28.3l-2.8-6.2c-0.2-0.5-0.4-0.9-0.5-1.3c-0.1-0.4-0.3-0.7-0.4-1.1c-0.2,0.5-0.3,1-0.5,1.4
	c-0.1,0.4-0.3,0.7-0.3,0.9l-2.8,6.3l-6.2-12.7h2.9l2.7,5.8c0.1,0.2,0.2,0.6,0.3,1c0.1,0.4,0.2,0.9,0.3,1.4c0-0.3,0.1-0.6,0.2-0.9
	c0.1-0.3,0.2-0.7,0.5-1.2l2.9-6.5h0.2l3,6.5c0.2,0.4,0.3,0.8,0.4,1.1c0.1,0.3,0.1,0.7,0.2,1c0.1-0.5,0.2-0.9,0.3-1.3
	c0.1-0.4,0.3-0.8,0.4-1.1l2.6-5.8h2.9L127,28.3z"/>
<path class="st0" d="M146.2,27.6h-2.7V26c-0.5,0.7-1.1,1.2-1.7,1.5c-0.6,0.3-1.4,0.5-2.2,0.5c-1.7,0-3-0.6-4-1.7
	c-1-1.2-1.5-2.7-1.5-4.8c0-1.9,0.5-3.5,1.5-4.6c1-1.2,2.3-1.8,3.9-1.8c1,0,1.8,0.2,2.5,0.6c0.7,0.4,1.2,1,1.5,1.8v-2h2.7V27.6z
	 M143.5,21.6c0-1.2-0.3-2.2-0.9-2.9c-0.6-0.7-1.4-1-2.4-1c-1,0-1.9,0.4-2.4,1.1c-0.6,0.7-0.9,1.7-0.9,3c0,1.3,0.3,2.3,0.9,2.9
	c0.6,0.7,1.4,1,2.4,1c1,0,1.8-0.4,2.4-1.1C143.2,23.8,143.5,22.8,143.5,21.6z"/>
<path class="st0" d="M149.7,10.4c0-0.5,0.2-0.9,0.5-1.2c0.3-0.3,0.8-0.5,1.2-0.5c0.5,0,0.9,0.2,1.2,0.5c0.3,0.3,0.5,0.7,0.5,1.2
	c0,0.5-0.2,0.9-0.5,1.2c-0.3,0.3-0.7,0.5-1.2,0.5c-0.5,0-0.9-0.2-1.2-0.5C149.9,11.3,149.7,10.9,149.7,10.4z M150.1,27.6v-12h2.7v12
	H150.1z"/>
<path class="st1" d="M15.6,0.8c0,0-7.6,0.1-8.3,0.1C5.9,1.1,2.9,1.7,1.6,4.2C0,7.6,3.1,12.3,3.1,12.3l4,6.4"/>
<path class="st0" d="M11.2,37.1c1-0.6,1.3-1.9,0.7-2.9c-0.6-1-1.9-1.3-2.9-0.7l-1.2,0.7c-1,0.6-1.3,1.9-0.7,2.9
	c0.6,1,1.9,1.3,2.9,0.7L11.2,37.1z"/>
<path class="st0" d="M20,20.5c1-0.6,1.3-1.9,0.7-2.9s-1.9-1.3-2.9-0.7L6.2,24.1c-1,0.6-1.3,1.9-0.7,2.9c0.6,1,1.9,1.3,2.9,0.7
	L20,20.5z"/>
<path class="st0" d="M24.2,29c1-0.6,1.3-1.9,0.7-2.9c-0.6-1-1.9-1.3-2.9-0.7l-6.6,4.1c-1,0.6-1.3,1.9-0.7,2.9c0.6,1,1.9,1.3,2.9,0.7
	L24.2,29z"/>
<path class="st0" d="M48.5,18.2c0.8-0.5,1-1.5,0.5-2.3c-0.5-0.8-1.5-1-2.3-0.5c-0.8,0.5-1,1.5-0.5,2.3S47.7,18.7,48.5,18.2z"/>
<path class="st2" d="M39,24.4c-1.2,2.4-2.5,5.1-3.7,7.5c-1.7,3.4-3.1,6.3-3.4,6.9c-1.1,2.2-2.2,3-3.5,2.8c-1-0.1-2.4-1.4-2.5-3.9
	c-0.1-2.5-0.4-9.5-5.8-6.2c-0.1-0.1-0.1-0.4-0.2-0.6c-0.1-0.3-0.1-0.6-0.3-0.8c-1.3-2-6.4-10.3-6-10.6c0.4-0.2,2.1-1.8,1-3.7
	c-0.9-1.6-2.5-2.5-4.1-3.5c-0.3-0.2-0.5-0.3-0.8-0.5c-2.5-1.6-3.1-2.8-2.5-4.5c0.7-1.6,3.2-1.6,4.2-1.5c1,0,8.5,0.1,16,0.1
	l-4.9,13.4c-0.3,0.8-0.2,1.6,0.1,2.4c0.5,0.7,1.3,1.1,2.2,1.2L39,24.4C38.9,24.4,38.9,24.4,39,24.4z M33.1,5.9
	c-0.2,0-0.4,0.1-0.6,0.2c-0.4,0.2-0.8,0.6-0.9,1.1c-1.7,3.9-2.2,5.2-2.9,7c-0.2,0.4-0.3,0.8-0.5,1.3c0,0.1-0.1,0.2-0.1,0.3
	c-0.3,0.8-0.8,2.3-0.5,2.9c0.3,0.5,1.1,0.6,2.4,0.7c0.2,0,0.4,0,0.6,0.1c3.8,0.4,9.1,0.9,9.1,0.9c0.5,0,0.9-0.2,1.3-0.5
	c0.1-0.1,0.2-0.1,0.2-0.2c0.1-0.3,0.3-0.5,0.4-0.7l3.6-7.1c0,0,0,0,0-0.1c0.7-1.5,3-5.9-3.7-5.8C39.6,5.9,36.6,5.9,33.1,5.9z"/>
<path class="st3" d="M51.3,11.1c0,0,2.5-3.9,0.5-7.1c-2-3.2-7.6-3.3-7.6-3.3L23.5,0.9"/>
<path class="st4" d="M18.8,37.7c0,0,4.1,6.6,4.3,6.9c0.6,0.8,2.9,3.8,6.1,3.5c3.7-0.4,6.1-5.6,6.1-5.6l9.9-19.7"/>
</svg>
